<?xml version="1.0" standalone="no"?>
<!DOCTYPE svg PUBLIC "-//W3C//DTD SVG 20010904//EN"
 "http://www.w3.org/TR/2001/REC-SVG-20010904/DTD/svg10.dtd">
<svg version="1.0" xmlns="http://www.w3.org/2000/svg"
 width="512.000000pt" height="512.000000pt" viewBox="0 0 512.000000 512.000000"
 preserveAspectRatio="xMidYMid meet">

<g transform="translate(0.000000,512.000000) scale(0.100000,-0.100000)"
fill="#000000" stroke="none">
<path d="M2380 5034 c-340 -32 -636 -114 -920 -255 -491 -244 -875 -627 -1114
-1109 -301 -607 -346 -1256 -133 -1899 296 -899 1079 -1538 2047 -1672 135
-19 496 -17 633 4 281 43 515 115 762 236 738 362 1239 1056 1361 1886 24 160
24 514 1 668 -43 284 -116 517 -237 762 -130 263 -274 462 -484 670 -196 193
-398 336 -651 460 -238 117 -485 193 -745 230 -111 16 -429 27 -520 19z m433
-169 c1051 -123 1865 -899 2038 -1940 102 -617 -75 -1305 -455 -1775 -211
-261 -400 -428 -659 -582 -278 -165 -586 -269 -912 -309 -127 -15 -401 -15
-530 1 -583 69 -1129 361 -1496 797 -41 49 -77 90 -80 93 -21 18 -118 164
-177 267 -209 366 -313 788 -299 1213 14 398 116 760 310 1091 387 663 1055
1085 1822 1152 107 9 323 5 438 -8z"/>
<path d="M2445 4313 c-120 -15 -272 -68 -389 -137 -76 -45 -234 -194 -284
-267 -225 -335 -225 -766 1 -1098 40 -59 179 -198 238 -238 291 -198 666 -225
974 -71 583 292 714 1057 261 1526 -99 104 -256 202 -391 245 -115 37 -294 55
-410 40z m315 -184 c274 -68 498 -294 571 -574 29 -112 29 -280 0 -390 -75
-283 -293 -501 -576 -576 -110 -29 -278 -29 -390 0 -282 73 -501 293 -576 576
-29 112 -29 280 0 390 115 433 536 682 971 574z"/>
<path d="M2375 2073 c-224 -15 -548 -91 -760 -180 -221 -92 -471 -244 -650
-396 -161 -135 -183 -174 -130 -231 44 -47 69 -38 206 80 438 376 948 566
1519 566 587 0 1101 -197 1552 -594 101 -89 131 -98 173 -52 53 57 30 98 -134
236 -262 219 -597 395 -921 484 -279 77 -567 106 -855 87z"/>
</g>
</svg>
