<svg width="40" height="40" viewBox="0 0 40 40" fill="none" xmlns="http://www.w3.org/2000/svg">
<g clip-path="url(#clip0_2948_221586)">
<g opacity="0.32">
<path d="M18.1667 10.8333C18.1667 9.78189 18.8396 9.00805 19.891 9.00039C19.9266 9.00013 19.9629 9 20 9C20.0371 9 20.0734 9.00013 20.109 9.00039C21.1604 9.00805 21.8333 9.78189 21.8333 10.8333C21.8333 11.8848 21.1604 12.6586 20.109 12.6663C20.0734 12.6665 20.0371 12.6667 20 12.6667C19.9629 12.6667 19.9266 12.6665 19.891 12.6663C18.8396 12.6586 18.1667 11.8847 18.1667 10.8333Z" fill="#919EAB"/>
<path d="M18.1667 29.1667C18.1667 30.2181 18.8396 30.9919 19.891 30.9996C19.9266 30.9999 19.9629 31 20 31C20.0371 31 20.0734 30.9999 20.109 30.9996C21.1604 30.9919 21.8333 30.2181 21.8333 29.1667C21.8333 28.1152 21.1604 27.3414 20.109 27.3337C20.0734 27.3335 20.0371 27.3333 20 27.3333C19.9629 27.3333 19.9266 27.3335 19.891 27.3337C18.8396 27.3414 18.1667 28.1152 18.1667 29.1667Z" fill="#919EAB"/>
<path d="M25.1855 12.2218C25.9289 11.4784 26.9519 11.407 27.7008 12.145C27.7262 12.17 27.7519 12.1956 27.7782 12.2218C27.8044 12.2481 27.83 12.2738 27.855 12.2992C28.593 13.0481 28.5216 14.0711 27.7782 14.8145C27.0347 15.558 26.0117 15.6294 25.2628 14.8914C25.2375 14.8664 25.2117 14.8408 25.1855 14.8145C25.1592 14.7883 25.1336 14.7625 25.1086 14.7372C24.3706 13.9883 24.442 12.9653 25.1855 12.2218Z" fill="#919EAB"/>
<path d="M12.2218 25.1855C11.4784 25.9289 11.407 26.9519 12.145 27.7008C12.17 27.7262 12.1956 27.7519 12.2218 27.7782C12.2481 27.8044 12.2738 27.83 12.2992 27.855C13.0481 28.593 14.0711 28.5216 14.8145 27.7782C15.558 27.0347 15.6294 26.0117 14.8914 25.2628C14.8664 25.2375 14.8408 25.2117 14.8145 25.1855C14.7883 25.1592 14.7625 25.1336 14.7372 25.1086C13.9883 24.3706 12.9653 24.442 12.2218 25.1855Z" fill="#919EAB"/>
<path d="M10.8333 21.8333C9.78189 21.8333 9.00805 21.1604 9.00039 20.109C9.00013 20.0734 9 20.0371 9 20C9 19.9629 9.00013 19.9266 9.00039 19.891C9.00805 18.8396 9.78189 18.1667 10.8333 18.1667C11.8847 18.1667 12.6586 18.8396 12.6663 19.891C12.6665 19.9266 12.6667 19.9629 12.6667 20C12.6667 20.0371 12.6665 20.0734 12.6663 20.109C12.6586 21.1604 11.8847 21.8333 10.8333 21.8333Z" fill="#919EAB"/>
<path d="M29.1667 21.8333C30.2181 21.8333 30.9919 21.1604 30.9996 20.109C30.9999 20.0734 31 20.0371 31 20C31 19.9629 30.9999 19.9266 30.9996 19.891C30.9919 18.8396 30.2181 18.1667 29.1667 18.1667C28.1152 18.1667 27.3414 18.8396 27.3337 19.891C27.3335 19.9266 27.3333 19.9629 27.3333 20C27.3333 20.0371 27.3335 20.0734 27.3337 20.109C27.3414 21.1604 28.1152 21.8333 29.1667 21.8333Z" fill="#919EAB"/>
<path d="M12.2218 14.8145C11.4784 14.0711 11.407 13.0481 12.145 12.2992C12.17 12.2738 12.1956 12.2481 12.2218 12.2218C12.2481 12.1956 12.2738 12.17 12.2992 12.145C13.0481 11.407 14.0711 11.4784 14.8145 12.2218C15.558 12.9653 15.6294 13.9883 14.8914 14.7372C14.8664 14.7625 14.8408 14.7883 14.8145 14.8145C14.7883 14.8408 14.7625 14.8664 14.7372 14.8914C13.9883 15.6294 12.9653 15.558 12.2218 14.8145Z" fill="#919EAB"/>
<path d="M25.1855 27.7782C25.9289 28.5216 26.9519 28.593 27.7008 27.855C27.7262 27.83 27.7519 27.8044 27.7782 27.7782C27.8044 27.7519 27.83 27.7262 27.855 27.7008C28.593 26.9519 28.5216 25.9289 27.7782 25.1855C27.0347 24.442 26.0117 24.3706 25.2628 25.1086C25.2375 25.1336 25.2117 25.1592 25.1855 25.1855C25.1592 25.2117 25.1336 25.2375 25.1086 25.2628C24.3706 26.0117 24.442 27.0347 25.1855 27.7782Z" fill="#919EAB"/>
</g>
<path d="M19.9998 26.1128C23.3749 26.1128 26.1109 23.3768 26.1109 20.0017C26.1109 16.6267 23.3749 13.8906 19.9998 13.8906C16.6247 13.8906 13.8887 16.6267 13.8887 20.0017C13.8887 23.3768 16.6247 26.1128 19.9998 26.1128Z" fill="#919EAB"/>
</g>
<defs>
<clipPath id="clip0_2948_221586">
<rect width="40" height="40" fill="white"/>
</clipPath>
</defs>
</svg>
