<svg width="40" height="40" viewBox="0 0 40 40" fill="none" xmlns="http://www.w3.org/2000/svg">
<g clip-path="url(#clip0_2948_221587)">
<path opacity="0.32" d="M24.9462 19.0863C24.9759 19.0874 25.0055 19.0886 25.035 19.0898C28.1966 19.2176 30.5 21.3358 30.5 24.5C30.5 27.6642 28.1966 29.7824 25.035 29.9102C23.7057 29.9639 22.0498 30 20 30C17.9502 30 16.2943 29.9639 14.965 29.9102C11.8034 29.7824 9.5 27.6642 9.5 24.5C9.5 22.0317 10.9017 20.1999 13.019 19.4529C13.2406 16.2951 15.3872 14.0243 18.6413 14.0012C18.7585 14.0004 18.878 14 19 14C19.122 14 19.2415 14.0004 19.3587 14.0012C22.4855 14.0234 24.5897 16.1208 24.9462 19.0863Z" fill="#919EAB"/>
<path d="M27.2407 10.2885C27.5263 10.12 27.5419 9.62921 27.2169 9.57222C26.1306 9.38179 24.9755 9.56344 23.9464 10.1706C22.4123 11.0758 21.5394 12.7019 21.501 14.3884C23.4283 15.1268 24.6785 16.8624 24.9459 19.0863L25.0347 19.0898C25.7391 19.1183 26.401 19.2456 27.0042 19.4612C27.6324 19.3806 28.2555 19.1732 28.8383 18.8294C29.8673 18.2222 30.5988 17.2907 30.9806 16.2341C31.0948 15.918 30.6711 15.6864 30.3855 15.8549C28.8813 16.7424 26.958 16.2157 26.0896 14.6786C25.2212 13.1415 25.7366 11.176 27.2407 10.2885Z" fill="#919EAB"/>
</g>
<defs>
<clipPath id="clip0_2948_221587">
<rect width="40" height="40" fill="white"/>
</clipPath>
</defs>
</svg>
